<svg width="388" height="76" viewBox="0 0 388 76" fill="none" xmlns="http://www.w3.org/2000/svg">
<g clip-path="url(#clip0_7_23)">
<path d="M104.289 48.9697L106.439 44.2055C109.091 46.0318 112.232 47.0176 115.452 47.0346C119.197 47.0346 120.72 45.7836 120.72 44.1029C120.72 39.0102 104.837 42.5075 104.837 32.3553C104.837 27.7159 108.582 23.868 116.346 23.868C119.669 23.8009 122.949 24.6361 125.835 26.2848L123.882 31.1232C121.586 29.7671 118.978 29.0281 116.311 28.9781C112.566 28.9781 111.118 30.3808 111.118 32.0962C111.118 37.132 127.007 33.6585 127.007 43.6906C127.007 48.2573 123.216 52.1779 115.413 52.1779C111.47 52.2753 107.59 51.1736 104.287 49.0186" fill="black"/>
<path d="M136.598 29.4929H127.863V24.3434H151.674V29.4929H142.931V51.6565H136.613L136.598 29.4929Z" fill="black"/>
<path d="M176.22 46.5844V51.6597H155.069V24.3434H175.711V29.4139H161.349V35.3438H174.03V40.2659H161.349V46.5844H176.22Z" fill="black"/>
<path d="M181.251 24.3434H187.569V46.5085H201.263V51.6628H181.251V24.3434Z" fill="black"/>
<path d="M204.824 24.3434H211.142V46.5085H224.836V51.6628H204.824V24.3434Z" fill="black"/>
<path d="M246.625 45.8325H233.939L231.522 51.6613H225.046L237.22 24.3308H243.444L255.671 51.6581H249.037L246.625 45.8325ZM244.633 41.0337L240.299 30.5545L235.958 41.0052L244.633 41.0337Z" fill="black"/>
<path d="M294.625 24.3434V51.6628H289.436L275.816 35.0769V51.6628H269.569V24.3434H274.804L288.388 40.9293V24.3434H294.625Z" fill="black"/>
<path d="M299.389 38.004C299.389 29.8847 305.707 23.8569 314.333 23.8569C322.96 23.8569 329.283 29.8263 329.283 38.004C329.283 46.1816 322.923 52.151 314.333 52.151C305.743 52.151 299.389 46.1485 299.389 38.004ZM322.882 38.004C322.904 36.8677 322.699 35.7385 322.279 34.6823C321.86 33.6262 321.234 32.6643 320.438 31.853C319.642 31.0417 318.692 30.3973 317.644 29.9573C316.597 29.5174 315.472 29.2908 314.335 29.2908C313.199 29.2908 312.073 29.5174 311.026 29.9573C309.978 30.3973 309.028 31.0417 308.232 31.853C307.436 32.6643 306.81 33.6262 306.391 34.6823C305.971 35.7385 305.766 36.8677 305.788 38.004C305.766 39.1402 305.971 40.2695 306.391 41.3256C306.81 42.3817 307.436 43.3436 308.232 44.1549C309.028 44.9662 309.978 45.6107 311.026 46.0506C312.073 46.4906 313.199 46.7172 314.335 46.7172C315.472 46.7172 316.597 46.4906 317.644 46.0506C318.692 45.6107 319.642 44.9662 320.438 44.1549C321.234 43.3436 321.86 42.3817 322.279 41.3256C322.699 40.2695 322.904 39.1402 322.882 38.004Z" fill="black"/>
<path d="M334.042 24.3308H346.458C355.392 24.3308 361.521 29.7173 361.521 37.9897C361.521 46.2622 355.392 51.6581 346.458 51.6581H334.042V24.3308ZM346.142 46.4612C351.568 46.4612 355.122 43.2246 355.122 37.9739C355.122 32.7233 351.568 29.4867 346.142 29.4867H340.37V46.4675L346.142 46.4612Z" fill="black"/>
<path d="M387.43 46.5844V51.6597H366.279V24.3434H386.928V29.4139H372.566V35.3438H385.247V40.2659H372.566V46.5844H387.43Z" fill="black"/>
<path d="M97.7872 25.1917H59.6664L51.4793 0L43.2969 25.1917H20.2345L47.5571 0H36.2233L0.563538 32.8639H75.957L28.3916 71.0368L24.1709 74.4267L22.2137 76.0063H34.4763L54.291 60.0996L76.1718 76L67.5392 49.4546L97.7872 25.1917Z" fill="black"/>
</g>
<defs>
<clipPath id="clip0_7_23">
<rect width="386.873" height="76" fill="white" transform="translate(0.563538)"/>
</clipPath>
</defs>
</svg>
